<svg xmlns="http://www.w3.org/2000/svg" viewBox="0 0 1440 320">
  <path fill="#84b6f4" fill-opacity="1" d="M0,192L20,170.7C40,149,80,107,120,96C160,85,200,107,240,138.7C280,171,320,213,360,202.7C400,192,440,128,480,128C520,128,560,192,600,192C640,192,680,128,720,90.7C760,53,800,43,840,58.7C880,75,920,117,960,144C1000,171,1040,181,1080,186.7C1120,192,1160,192,1200,170.7C1240,149,1280,107,1320,80C1360,53,1400,43,1420,37.3L1440,32L1440,320L1420,320C1400,320,1360,320,1320,320C1280,320,1240,320,1200,320C1160,320,1120,320,1080,320C1040,320,1000,320,960,320C920,320,880,320,840,320C800,320,760,320,720,320C680,320,640,320,600,320C560,320,520,320,480,320C440,320,400,320,360,320C320,320,280,320,240,320C200,320,160,320,120,320C80,320,40,320,20,320L0,320Z"></path>
</svg>